PathFileType	4	(X/Y/Z)	Patient5_TMGait_0pt45_1_right_08.trc.trc
DataRate	CameraRate	NumFrames	NumMarkers	Units	OrigDataRate	OrigDataStartFrame	OrigNumFrames
57.377049180328	57.377049180328	6	32	mm	57.377049180328	53	       141
Frame#	Time	R.ASIS			L.ASIS			Chest			R.Shoulder			Neck			L.Shoulder			L.Elbow			L.Wrist			R.Elbow			R.Wrist			L.Thigh.Superior			L.Thigh.Lateral			L.Thigh.Inferior			L.Patella			L.Shank.Superior			L.Shank.Lateral			L.Shank.Inferior			L.Heel			L.Midfoot.Lateral			L.Midfoot.Superior			L.Toe			R.Thigh.Superior			R.Thigh.Lateral			R.Thigh.Inferior			R.Patella			R.Shank.Superior			R.Shank.Lateral			R.Shank.Inferior			R.Heel			R.Midfoot.Lateral			R.Midfoot.Superior			R.Toe			
		X1	Y1	Z1	X2	Y2	Z2	X3	Y3	Z3	X4	Y4	Z4	X5	Y5	Z5	X6	Y6	Z6	X7	Y7	Z7	X8	Y8	Z8	X9	Y9	Z9	X10	Y10	Z10	X11	Y11	Z11	X12	Y12	Z12	X13	Y13	Z13	X14	Y14	Z14	X15	Y15	Z15	X16	Y16	Z16	X17	Y17	Z17	X18	Y18	Z18	X19	Y19	Z19	X20	Y20	Z20	X21	Y21	Z21	X22	Y22	Z22	X23	Y23	Z23	X24	Y24	Z24	X25	Y25	Z25	X26	Y26	Z26	X27	Y27	Z27	X28	Y28	Z28	X29	Y29	Z29	X30	Y30	Z30	X31	Y31	Z31	X32	Y32	Z32	

53	13.756285714286	1036.422463114310	959.778682791996	598.372186984072	1005.571578631253	959.394821213105	361.067217485818	1117.277730264341	1419.495107239853	487.408298842182	1054.375786910066	1480.876709090663	670.510555894004	996.070127774785	1548.775955806386	496.339196419098	1021.420442882756	1499.623312054804	307.737636754666	882.360931843978	1200.072228194921	190.183055801878	965.989687011404	923.670359348448	168.153486669316	1014.571124268888	1165.564277698888	830.864698788593	1221.800156373985	990.903355520774	728.039957499498	1084.662564042007	787.157033706979	337.356780413152	1052.252071352385	700.111952292619	285.630774369884	1146.560370089441	675.987869443714	345.916361669522	1201.571187756997	547.139870368143	332.275925395134	1152.703990117358	437.031399414168	355.965406307598	1071.258603329542	375.074167186102	286.880678782866	1111.795890904915	317.445071445889	367.923316467972	964.506282877367	93.589143187436	381.187972871198	1042.978731166555	67.032095293104	309.402595136843	1148.635060787708	123.279770205604	338.035398298873	1250.443683355432	77.597108083571	327.137075946753	1014.423126737331	723.522275437191	604.486831478765	916.385186028944	656.767672485537	654.955926373572	982.048209140365	597.307492402567	573.855656434336	968.968977072007	502.992920139750	595.282213233314	918.887725710217	416.534871975402	552.889542072137	846.926307706806	347.789718791225	631.402251846320	896.307690068801	279.418899913765	543.282785846774	765.542444447231	53.636954311810	493.919280796840	841.955394099375	25.001494908268	569.070047175330	948.534279452960	87.269058235645	547.425154982023	1052.431480174113	44.127793985172	550.268708180143	
54	13.773714285714	1035.437945474200	958.837483048133	598.840366336977	1007.845698631926	957.618166830900	361.311405846634	1119.387036803877	1418.142546134147	487.493265723864	1054.961676746084	1479.898157505824	669.823199379196	998.146269537245	1547.600720031414	495.237736963090	1025.345112343816	1498.150677991663	306.829726401614	886.892500544863	1198.702674903955	188.370539946727	969.911775190636	922.083477989979	166.829016171140	1013.887987970819	1164.302253556718	829.542007573726	1222.341391209718	990.301901047594	728.111473231149	1083.776451950981	782.923698136593	337.368324580789	1050.206200171053	695.793640505417	286.614498124922	1144.284904792694	671.286355328621	347.219664425843	1199.634190898600	546.717211996101	334.865232177869	1158.618143132562	436.201888163624	358.976682497479	1082.155731517521	367.905163912603	289.899720086626	1128.571476410867	313.348320764561	370.445562007994	1000.434450468306	79.195886561892	384.342908771141	1080.310105789748	56.800410980411	312.724576978802	1182.279240122751	120.022352661784	340.222860966605	1286.811629595791	80.743149700439	329.658062605790	1011.238527341899	722.432636407420	604.493789437612	912.105835520212	656.613437009209	654.452451083848	977.766626946762	596.552092239599	573.939603939364	963.739812028991	502.175283079503	595.373496099415	913.136312142413	416.221051114690	552.715510507220	840.126440794481	348.145848375817	630.838145374796	889.721400036279	279.282166175833	543.298659775152	757.677040073148	53.672887877048	493.828659887735	834.027136517834	25.024750548309	569.007188703365	940.569295792324	87.238101940821	547.466694942994	1044.441911043032	44.117634094460	550.249147149514	
55	13.791142857143	1034.795587417821	957.901505333405	599.319907287435	1010.845049189893	955.603430193126	361.468475709317	1121.505238725105	1416.754909299694	487.378252314865	1055.277035294163	1478.817304234420	668.745589575852	1000.170751101825	1546.305043953600	493.729237837088	1029.557685957804	1496.592910324792	305.564470915601	891.810457042742	1197.235477331941	186.111184370807	974.320903038819	920.417743401040	165.268142152516	1012.815310786696	1162.896208728850	827.820121117129	1222.404433799642	989.089590621775	728.344650976064	1083.257120939623	777.814178643066	337.043433531241	1047.854283410736	690.540355727195	287.825082191006	1141.886621276205	665.518936594340	348.517920079560	1196.848696547296	545.234080018810	338.110072169104	1163.067672546763	434.731382159706	362.747750546974	1091.663190880645	360.916295822009	293.612816373055	1143.278581976948	309.615422953757	373.810319501512	1033.186828535865	67.549758811611	387.674767332160	1114.592616300864	48.599062376312	316.811346751843	1212.740237692974	117.722450401703	343.932006235431	1319.396133833093	84.170668800088	334.496932861124	1008.664769214888	721.394816184407	604.443512885922	908.357403662765	656.473536193299	653.820499976812	974.137637491213	595.780504781660	574.037262921501	959.072963614792	501.315014208228	595.455316459200	907.881726628009	415.818814047703	552.503383784846	833.688160495328	348.538558320333	630.183069541120	883.459476615348	279.077003632165	543.292670744336	749.807253550136	53.706634849818	493.749035296121	826.120274953747	25.035044268424	568.938496768103	932.630170061688	87.233451603775	547.535095273457	1036.467766876389	44.096410986163	550.220530279893	
56	13.808571428571	1034.578961529816	956.965760436137	599.778256146899	1014.618571266825	953.469838157974	361.498539644894	1123.574884377606	1415.424210734707	487.074234924447	1055.212877445993	1477.740148718305	667.263466646986	1002.100895430883	1544.957941430883	491.785332425663	1034.005402383183	1494.985144139815	303.927992781615	897.181180061924	1195.679778715680	183.356082002571	979.256662520340	918.667962811919	163.526429636487	1011.367772048997	1161.459032150213	825.729026043714	1221.972341070875	987.409622822191	728.685179177948	1083.423738448804	772.151588660797	336.580454526478	1045.705569766221	684.702161607520	289.312732450401	1139.719618102589	659.074010297115	350.097600245178	1193.641428654261	542.835578845675	342.231440884251	1166.129934165959	432.586590141302	367.368470273061	1099.541938897178	354.267122805908	298.087901954613	1155.377182068689	306.109474615216	378.127350260453	1061.091508497356	58.629009996011	391.161435134819	1144.170747340157	42.352225828459	321.593299483516	1238.675407152740	116.002083774071	349.296094319186	1346.915084813448	87.181329975206	341.674861269012	1006.850128194449	720.428281432223	604.309176167269	905.333958647007	656.346295331644	653.040397117924	971.315545075408	594.975042640653	574.096236592740	955.129722128719	500.412757504834	595.481396875239	903.259213650582	415.322411274963	552.233938991398	827.749069119461	348.977462269732	629.443070669111	877.587639881451	278.800684156309	543.245527566714	741.937922204163	53.757889932741	493.696156220678	818.240966984115	25.029390099683	568.867546120803	924.725566698512	87.255398609851	547.634164705610	1028.519852271581	44.067374945770	550.191881918325	
57	13.826000000000	1034.853672236255	956.031625857739	600.169031974712	1019.169400696774	951.357973370972	361.372306359090	1125.549681553006	1414.261830348112	486.581593021408	1054.678375136585	1476.777643702617	665.381525391699	1003.909224036871	1543.645510061447	489.396313634341	1038.602841573604	1493.384754890380	301.924288657771	903.073955240478	1194.042388024892	180.094721239918	984.754248456212	916.826596042998	161.644348118966	1009.530969449006	1160.111156384567	823.301803584827	1221.026848223854	985.470066612263	729.068014704323	1084.584617640418	766.343425372821	336.265278653620	1044.338949425862	678.730066816227	291.115086912828	1138.161531714581	652.422299366764	352.253013521997	1190.485583797011	539.730209420413	347.367574859680	1167.963870242954	429.813221016829	372.813579992307	1105.749774235699	348.122179459438	303.204598736557	1164.496149494561	302.684067366603	383.336697487535	1082.798429948330	52.287346591837	394.669303641843	1167.640110561440	37.822774321427	326.844993220449	1259.032348584905	114.334630898032	356.209736797459	1368.346384226441	88.884279778494	350.924496498364	1005.862820318578	719.552176297006	604.104810099430	903.161929941733	656.235499896506	652.105611207360	969.385002137272	594.134231710226	574.065472529310	952.006453978887	499.478453555458	595.411908757179	899.353508755047	414.740411965537	551.894930568307	822.403615047436	349.481533914169	628.632599466859	872.133979585578	278.471069748598	543.144131483202	734.078299538317	53.871503587432	493.685132907953	810.394918654649	25.016667572327	568.798581085630	916.866627287026	87.302940545174	547.766470854295	1020.605665003838	44.031358845306	550.172397460033	
58	13.843428571429	1035.644924361224	955.126695915515	600.437978873965	1024.438742533057	949.426599019583	361.076082211318	1127.413082426137	1413.383305395469	485.887411339411	1053.641228663952	1476.039847596061	663.123424625817	1005.601581836899	1542.469610044134	486.571016040311	1043.262629064682	1491.870804439037	299.574837737836	909.536700409703	1192.345576215700	176.365321094741	990.839163649111	914.908892999552	159.641972619664	1007.257732788654	1158.977406814680	820.562021547154	1219.546107209242	983.519302712779	729.435474176867	1086.979548256066	760.857913267758	336.426947366480	1044.314647908048	673.139595286317	293.239362884242	1137.565168233988	646.080475827978	355.214100477470	1187.844371415045	536.199866068682	353.533549821674	1168.799660725999	426.566876601238	378.918595193701	1110.482294278759	342.675045674161	308.629818733685	1170.518939614636	299.254738356257	389.176262802988	1097.549912117423	48.275985087818	397.948255826081	1184.149280448014	34.661653342068	332.194355980961	1273.275690564848	112.200224063337	364.268872659142	1383.169076417382	88.444438743118	361.660126232331	1005.687438547498	718.799305649887	603.885280400882	901.881810596610	656.160513466112	651.024206319687	968.358028115805	593.285980311159	573.913098806364	949.734752206547	498.540658994473	595.228152863846	896.199654083958	414.096443707443	551.487717828895	817.698285222278	350.082346963536	627.771201776983	867.099774168667	278.127932277632	542.988345187982	726.245757172070	54.125235814686	493.726709642494	802.588064560503	25.026594757320	568.735666874308	909.072579941326	87.376527934828	547.939017949308	1012.730048545113	43.985236077076	550.169846054751	
